<!-- icon666.com - MILLIONS vector ICONS FREE --><svg fill="none" viewBox="0 0 25 25" xmlns="http://www.w3.org/2000/svg"><g clip-rule="evenodd" fill="#f93" fill-rule="evenodd"><path d="m6.60408 12.8458c0 3.3592 2.7232 6.0824 6.08242 6.0824 3.3592 0 6.0824-2.7232 6.0824-6.0824 0-3.35923-2.7232-6.08243-6.0824-6.08243-3.35922 0-6.08242 2.7232-6.08242 6.08243z"></path><path d="m23.6076 11.8771h-2.2216c-.5208 0-.9464.4256-.9464.9464v.0448c0 .5208.4256.9464.9464.9464h2.2216c.5208 0 .9464-.4256.9464-.9464v-.0448c0-.5208-.4256-.9464-.9464-.9464"></path><path d="m4.93264 12.868v-.0448c0-.5208-.4256-.9464-.9464-.9464h-2.2216c-.5208 0-.947196.4256-.947196.9464v.0448c0 .5208.426396.9464.947196.9464h2.2216c.5208 0 .9464-.4256.9464-.9464"></path><path d="m18.6397 2.57859-.0384-.0224c-.4512-.26-1.0328-.1048-1.2936.3464l-1.1104 1.9248c-.2608.45039-.1048 1.0328.3456 1.29279l.0392.0224c.4504.26 1.0328.104 1.2928-.3472l1.1112-1.92399c.26-.4504.104-1.0328-.3464-1.2928"></path><path d="m8.82872 19.5715-.0384-.0224c-.4512-.2608-1.0328-.1048-1.2928.3464l-1.1112 1.924c-.26.4512-.1048 1.0328.3464 1.2928l.0384.0232c.4512.26 1.0328.104 1.2928-.3472l1.1112-1.924c.26-.4512.1048-1.0328-.3464-1.2928"></path><path d="m17.8748 19.8954c-.26-.4504-.8424-.6064-1.2928-.3464l-.0392.0224c-.4504.26-.6064.8416-.3456 1.2928l1.1112 1.9248c.26.4504.8416.6064 1.2928.3464l.0384-.0232c.4512-.26.6064-.8416.3464-1.2928z"></path><path d="m7.49744 5.79577c.26.4512.8416.6064 1.2928.3464l.0384-.0224c.4512-.26.6064-.8416.3464-1.2928l-1.1112-1.924c-.26-.4512-.84159-.6072-1.29279-.3464l-.0384.0224c-.4512.26-.6064.8416-.3464 1.2928z"></path><path d="m5.63616 7.65674-1.924-1.1112c-.4512-.26-1.0328-.104-1.2928.3464l-.0224.0392c-.2608.4504-.1048 1.0328.3464 1.2928l1.924 1.1112c.4512.26 1.0328.104 1.2928-.3464l.0224-.0392c.2608-.4504.104-1.0328-.3464-1.2928"></path><path d="m22.6291 17.4676-1.9248-1.1112c-.4504-.26-1.032-.1048-1.292.3464l-.0224.0384c-.2608.4512-.1048 1.0328.3456 1.2928l1.9248 1.1112c.4512.26 1.0328.1048 1.2928-.3456l.0224-.0392c.26-.4512.104-1.0328-.3464-1.2928"></path><path d="m5.96039 16.7028c-.2608-.4504-.8416-.6064-1.2928-.3464l-1.924 1.1112c-.4512.26-.6072.8416-.3472 1.2928l.0232.0392c.26.4504.8416.6056 1.292.3456l1.9248-1.1104c.4504-.2608.6072-.8424.3464-1.2936z"></path><path d="m19.4119 8.98833c.26.4504.8424.6064 1.2928.3464l1.924-1.1112c.4512-.26.6072-.8416.3472-1.2928l-.0232-.0384c-.26-.4512-.8416-.6064-1.292-.3464l-1.9248 1.1104c-.4512.2608-.6072.8424-.3464 1.2936z"></path><path d="m12.6638 5.09225h.0448c.5208 0 .9464-.4256.9464-.9464v-2.2216c0-.5208-.4256-.947199-.9464-.947199h-.0448c-.5208 0-.9464.426399-.9464.947199v2.2216c0 .5208.4256.9464.9464.9464"></path><path d="m12.7084 20.5989h-.0448c-.5208 0-.9464.4256-.9464.9464v2.2224c0 .52.4256.9464.9464.9464h.0448c.5208 0 .9464-.4264.9464-.9464v-2.2224c0-.5208-.4256-.9464-.9464-.9464"></path></g></svg>