<?xml version="1.0" encoding="utf-8"?>
<!-- Svg Vector Icons : http://www.onlinewebfonts.com/icon -->
<!DOCTYPE svg PUBLIC "-//W3C//DTD SVG 1.1//EN" "http://www.w3.org/Graphics/SVG/1.1/DTD/svg11.dtd">
<svg version="1.1" xmlns="http://www.w3.org/2000/svg" xmlns:xlink="http://www.w3.org/1999/xlink" x="0px" y="0px" viewBox="0 0 256 256" enable-background="new 0 0 256 256" xml:space="preserve">
<metadata> Svg Vector Icons : http://www.onlinewebfonts.com/icon </metadata>
<g> <path fill="#5198d3" d="M57.2,232l16.6-16.6c2.1-2.1,5.5-2.1,7.6,0c2.1,2.1,2.1,5.5,0,7.6l0,0l-16.6,16.6c-2.1,2.1-5.5,2.1-7.6,0 C55.1,237.5,55.1,234.1,57.2,232L57.2,232z M56.1,177.4c2.1-2.1,5.5-2.1,7.6,0c2.1,2.1,2.1,5.5,0,7.6l-16.6,16.6 c-2.1,2.1-5.5,2.1-7.6,0s-2.1-5.5,0-7.6L56.1,177.4z M122.8,232l16.6-16.6c2.1-2.1,5.5-2.1,7.6,0s2.1,5.5,0,7.6l-16.6,16.6 c-2.1,2.1-5.5,2.1-7.6,0C120.7,237.5,120.7,234.1,122.8,232L122.8,232z M121.7,177.4c2.1-2.1,5.5-2.1,7.6,0c2.1,2.1,2.1,5.5,0,7.6 l-16.6,16.6c-2.1,2.1-5.5,2.1-7.6,0s-2.1-5.5,0-7.6L121.7,177.4z M187.3,177.4c2.1-2.1,5.5-2.1,7.6,0c2.1,2.1,2.1,5.5,0,7.6 l-16.6,16.6c-2.1,2.1-5.5,2.1-7.6,0s-2.1-5.5,0-7.6L187.3,177.4z"/> <path fill="#bfd7f0" d="M47.9,154.8C27,154.8,10,137.9,10,117.1c0-20.7,16.8-37.5,37.6-37.7c2.8-36.1,33.2-64.6,70.2-64.6 c24.9,0,47.7,13,60.4,34.1c4.5-1.2,9.1-1.8,13.8-1.8c29.9,0,54.1,24.2,54.1,53.9s-24.3,53.9-54.1,53.9L47.9,154.8L47.9,154.8z"/></g>
</svg>