<!-- icon666.com - MILLIONS vector ICONS FREE --><svg fill="none" viewBox="0 0 22 24" xmlns="http://www.w3.org/2000/svg"><g clip-rule="evenodd" fill-rule="evenodd"><path d="m16.6115 3.95047c-.4312 0-.8488.056-1.248.16-.7464-2.1168-2.7632-3.633602-5.1352-3.633602-2.90641 0-5.28081 2.276802-5.43601 5.144002-.1784-.0224-.3584-.0392-.5432-.0392-2.2608 0-4.094396 1.8336-4.094396 4.0952 0 2.26083 1.833596 4.09443 4.094396 4.09443h12.36241c2.712 0 4.9104-2.1976 4.9104-4.91043 0-2.712-2.1984-4.9104-4.9104-4.9104z" fill="#d0d2d3"></path><g fill="#26a9e0"><path d="m12.7349 21.7883-.9656-.3784.7528-.712c.0656-.0624.0688-.1672.0064-.2328l-.304-.3216c-.0616-.0656-.1664-.0688-.232-.0056l-.6848.648-.1808-.9256c-.0168-.0888-.104-.148-.1928-.1296l-.4336.084c-.0888.0176-.148.104-.1304.1928l.1808.9264-.87836-.344c-.0848-.0336-.18.0088-.2136.0928l-.1608.412c-.0328.0832.0088.1792.0928.212l.96636.3784-.75356.7136c-.0656.0624-.0688.1672-.0056.2328l.3032.3208c.0624.0656.16716.0688.23276.0064l.6848-.6488.1808.9264c.0168.0888.104.1464.1928.1296l.4336-.0848c.0888-.0168.1472-.104.1304-.1928l-.1808-.9248.8776.3424c.0848.0336.1808-.008.2136-.0928l.1616-.4112c.0328-.0848-.0096-.1808-.0936-.2136z"></path><path d="m12.7349 17.3634-.9656-.3784.7528-.7128c.0656-.0616.0688-.1664.0064-.232l-.304-.3216c-.0616-.0656-.1664-.0688-.232-.0056l-.6848.648-.1808-.9264c-.0168-.088-.104-.1472-.1928-.1296l-.4336.0848c-.0888.0176-.148.104-.1304.192l.1808.9264-.87836-.344c-.0848-.0328-.18.0096-.2136.0928l-.1608.4128c-.0328.0832.0088.1792.0928.212l.96636.3784-.75356.7136c-.0656.0624-.0688.1664-.0056.2328l.3032.3208c.0624.0656.16716.0688.23276.0064l.6848-.6488.1808.9264c.0168.088.104.1464.1928.1296l.4336-.0848c.0888-.0176.1472-.104.1304-.1928l-.1808-.9256.8776.3432c.0848.0328.1808-.008.2136-.0928l.1616-.4112c.0328-.0848-.0096-.1808-.0936-.2136z"></path><path d="m17.2701 21.7883-.9656-.3784.7528-.712c.0664-.0624.0688-.1672.0064-.2328l-.304-.3216c-.0616-.0656-.1664-.0688-.232-.0056l-.6848.648-.1808-.9256c-.0168-.0888-.104-.148-.1928-.1296l-.4336.084c-.0888.0176-.148.104-.1304.1928l.1808.9264-.8784-.344c-.0848-.0336-.18.0088-.2136.0928l-.1608.412c-.0328.0832.0088.1792.0928.212l.9664.3784-.7536.7136c-.0656.0624-.0688.1672-.0056.2328l.3032.3208c.0624.0656.1672.0688.2328.0064l.6848-.6488.1808.9264c.0168.0888.104.1464.1928.1296l.4336-.0848c.0888-.0168.1472-.104.1304-.1928l-.1808-.9248.8776.3424c.0848.0336.1808-.008.2136-.0928l.1616-.4112c.0328-.0848-.0096-.1808-.0936-.2136z"></path><path d="m17.2701 17.3634-.9656-.3784.7528-.7128c.0664-.0616.0688-.1664.0064-.232l-.304-.3216c-.0616-.0656-.1664-.0688-.232-.0056l-.6848.648-.1808-.9264c-.0168-.088-.104-.1472-.1928-.1296l-.4336.0848c-.0888.0176-.148.104-.1304.192l.1808.9264-.8784-.344c-.0848-.0328-.18.0096-.2136.0928l-.1608.4128c-.0328.0832.0088.1792.0928.212l.9664.3784-.7536.7136c-.0656.0624-.0688.1664-.0056.2328l.3032.3208c.0624.0656.1672.0688.2328.0064l.6848-.6488.1808.9264c.0168.088.104.1464.1928.1296l.4336-.0848c.0888-.0176.1472-.104.1304-.1928l-.1808-.9256.8776.3432c.0848.0328.1808-.008.2136-.0928l.1616-.4112c.0328-.0848-.0096-.1808-.0936-.2136z"></path><path d="m8.09278 21.7493-.9656-.3784.7528-.7128c.0656-.0624.0688-.1672.0064-.232l-.304-.3216c-.0624-.0656-.1664-.0688-.232-.0064l-.6848.6488-.1808-.9264c-.0168-.088-.104-.1472-.1928-.1296l-.4336.084c-.0888.0184-.148.1048-.1304.1928l.1808.9264-.8784-.344c-.0848-.0328-.1808.0096-.2136.0928l-.1608.412c-.0336.084.0088.18.0928.2128l.9656.3784-.7528.7136c-.0656.0616-.0688.1664-.0064.2328l.304.3208c.0624.0656.1672.068.2328.0064l.6848-.6496.1808.9264c.0168.0888.104.1472.1928.1304l.4336-.0848c.0888-.0176.1472-.104.1296-.1928l-.18-.9256.8776.3432c.0848.0328.1808-.008.2136-.0928l.1616-.4112c.0328-.0856-.0096-.1808-.0936-.2136z"></path><path d="m8.09278 17.3235-.9656-.3776.7528-.7128c.0656-.0624.0688-.1672.0064-.2328l-.304-.3208c-.0624-.0656-.1664-.0688-.232-.0064l-.6848.648-.1808-.9256c-.0168-.0888-.104-.1472-.1928-.1296l-.4336.084c-.0888.0176-.148.104-.1304.1928l.1808.9264-.8784-.344c-.0848-.0336-.1808.0088-.2136.0928l-.1608.412c-.0336.084.0088.1792.0928.2128l.9656.3784-.7528.7128c-.0656.0624-.0688.1672-.0064.2328l.304.3208c.0624.0656.1672.0688.2328.0064l.6848-.6488.1808.9264c.0168.0888.104.1472.1928.1296l.4336-.0848c.0888-.0168.1472-.104.1296-.1928l-.18-.9248.8776.3432c.0848.0328.1808-.0088.2136-.0936l.1616-.4112c.0328-.0848-.0096-.1808-.0936-.2136z"></path></g></g></svg>