<!-- icon666.com - MILLIONS vector ICONS FREE --><svg id="Layer_1" viewBox="0 0 512 512" xmlns="http://www.w3.org/2000/svg" data-name="Layer 1"><path d="m264.513 233.9v-108.664a6 6 0 0 0 -12 0v108.664a23.3 23.3 0 0 0 0 45.016v11.094a6 6 0 0 0 12 0v-11.091a23.3 23.3 0 0 0 0-45.016zm-6 33.806a11.3 11.3 0 1 1 11.263-11.3 11.293 11.293 0 0 1 -11.263 11.303z"></path><path d="m423.164 79.382a236.4 236.4 0 0 0 -403.564 167.488 236.636 236.636 0 0 0 236.4 236.87 230.843 230.843 0 0 0 70.262-10.625 66.621 66.621 0 0 0 105.074 6.1 66.852 66.852 0 0 0 15.974-53.035 66.109 66.109 0 0 0 -6.936-21.319l-3.081-5.952c36.062-42.694 55.107-95.168 55.107-152.039a235.555 235.555 0 0 0 -69.236-167.488zm-.875 391.945a54.659 54.659 0 0 1 -80.734 1.7c-16.365-17.277-19.447-43.262-7.67-64.659l48.852-88.76 46.98 90.772a54.161 54.161 0 0 1 5.706 17.443 54.858 54.858 0 0 1 -13.134 43.504zm9.01-84-8.784-16.972a209.559 209.559 0 0 0 40.5-123.484c0-114.377-92.869-207.43-207.02-207.43-104.48-.001-191.128 77.959-205.054 178.878a6 6 0 0 0 5.954 6.794h.011a5.99 5.99 0 0 0 5.934-5.172c13.132-95.062 94.743-168.501 193.16-168.501 107.534 0 195.02 87.67 195.02 195.43a197.573 197.573 0 0 1 -34.709 111.5l-25.935-50.11a8.492 8.492 0 0 0 -14.984-.193l-52.02 94.515a68.829 68.829 0 0 0 -8.549 30.673 194.516 194.516 0 0 1 -58.823 9.045c-99.591 0-181.972-75.2-193.6-171.91a6 6 0 0 0 -11.915 1.418c12.332 102.661 99.787 182.492 205.515 182.492a206.586 206.586 0 0 0 59.511-8.71 66.171 66.171 0 0 0 4.815 16.786 219.194 219.194 0 0 1 -64.326 9.364 224.633 224.633 0 0 1 -224.4-224.87 224.4 224.4 0 1 1 448.8 0c0 52.297-16.951 100.663-49.1 140.456z"></path><path d="m257.762 75.552c.018 0 .009 0-.01-.006.008 0 0 0-.024 0-.058 0-.138-.007-.07 0-.017 0-.022 0-.018 0h.058s.164.007.064.006z"></path><path d="m406.378 165.347c-.019-.027-.03-.04.011.03.154.267-.082-.228-.011-.03z"></path><path d="m96.679 296.012a6.007 6.007 0 0 0 5.8-7.561 159 159 0 0 1 -4.673-25.6h11.017a6 6 0 1 0 0-12h-11.748c-.033-1.327-.065-2.655-.065-3.984a158.668 158.668 0 0 1 14.543-66.53l8.612 4.982a6 6 0 1 0 6.01-10.386l-9.185-5.314a160.414 160.414 0 0 1 49.661-54.472l4.866 8.444a6 6 0 1 0 10.4-5.991l-5.1-8.854a157.694 157.694 0 0 1 75.413-21.158v10.179a6 6 0 1 0 12 0v-10.013a157.61 157.61 0 0 1 67.95 19.3l-5.122 8.889a6 6 0 1 0 10.4 5.991l5.017-8.706a160.394 160.394 0 0 1 50.517 52.853l-8.845 5.117a6 6 0 1 0 6.009 10.386l8.54-4.94a158.607 158.607 0 0 1 16.293 69.469h-10.2a6 6 0 0 0 0 12h9.8a159.444 159.444 0 0 1 -4.83 29.461 6 6 0 1 0 11.605 3.051 171.812 171.812 0 0 0 5.494-37.256l.134-6.5a173.848 173.848 0 0 0 -20.6-81.493c-28.628-52.283-85.346-88.73-148.691-89.823-32.857 0-66.012 9.77-92.1 25.93.017-.012 0 0-.025.007.195-.179-.356.214-.027.025-47.853 30.4-80.536 84.5-80.536 145.354a172.04 172.04 0 0 0 5.879 44.7 6 6 0 0 0 5.787 4.443z"></path><path d="m177.81 386.54a159.151 159.151 0 0 1 -14.3-9.245 6 6 0 0 0 -7.047 9.713 170.944 170.944 0 0 0 15.383 9.944 6 6 0 0 0 5.965-10.412z"></path><path d="m119.535 328.756a6 6 0 1 0 -10.361 6.055 171.1 171.1 0 0 0 32.231 39.91 6 6 0 1 0 8.1-8.852 159.106 159.106 0 0 1 -29.97-37.113z"></path></svg>