<!-- icon666.com - MILLIONS vector ICONS FREE --><svg fill="none" viewBox="0 0 22 24" xmlns="http://www.w3.org/2000/svg"><g clip-rule="evenodd" fill-rule="evenodd"><path d="m16.8447 3.75049c-.4312 0-.8496.056-1.248.16-.7464-2.1168-2.7632-3.633604-5.1352-3.633604-2.90638 0-5.28078 2.276804-5.43598 5.144004-.1784-.0224-.3584-.0392-.5432-.0392-2.2608 0-4.094403 1.8336-4.094403 4.0952 0 2.26081 1.833603 4.09441 4.094403 4.09441h12.36238c2.712 0 4.9104-2.1976 4.9104-4.91042 0-2.712-2.1984-4.91039-4.9104-4.91039z" fill="#d0d2d3"></path><g fill="#26a9e0"><path d="m12.9678 21.5883-.9656-.3784.7528-.712c.0664-.0624.0688-.1672.0064-.2328l-.304-.3216c-.0616-.0656-.1664-.0688-.232-.0056l-.6848.648-.18-.9256c-.0176-.0888-.1048-.148-.1928-.1296l-.4344.084c-.0888.0176-.1472.104-.1304.1928l.1808.9264-.87844-.344c-.084-.0336-.18.0088-.2128.0928l-.1616.412c-.0328.0832.0088.1792.0936.212l.96564.3784-.75364.7136c-.0656.0624-.068.1672-.0056.2328l.30404.3208c.0616.0656.1664.0688.2328.0064l.684-.6488.1808.9264c.0176.0888.104.1464.1928.1296l.4344-.0848c.0888-.0168.1472-.104.1296-.1928l-.18-.9248.8776.3424c.084.0336.18-.008.2128-.0928l.1616-.4112c.0328-.0848-.0096-.1808-.0936-.2136z"></path><path d="m12.9678 17.1634-.9656-.3784.7528-.7128c.0664-.0616.0688-.1664.0064-.232l-.304-.3216c-.0616-.0656-.1664-.0688-.232-.0056l-.6848.648-.18-.9264c-.0176-.088-.1048-.1472-.1928-.1296l-.4344.0848c-.0888.0176-.1472.104-.1304.192l.1808.9264-.87844-.344c-.084-.0328-.18.0096-.2128.0928l-.1616.4128c-.0328.0832.0088.1792.0936.212l.96564.3784-.75364.7136c-.0656.0624-.068.1664-.0056.2328l.30404.3208c.0616.0656.1664.0688.2328.0064l.684-.6488.1808.9264c.0176.088.104.1464.1928.1296l.4344-.0848c.0888-.0176.1472-.104.1296-.1928l-.18-.9256.8776.3432c.084.0328.18-.008.2128-.0928l.1616-.4112c.0328-.0848-.0096-.1808-.0936-.2136z"></path></g></g></svg>