<!-- icon666.com - MILLIONS vector ICONS FREE --><svg fill="none" viewBox="0 0 23 24" xmlns="http://www.w3.org/2000/svg"><g clip-rule="evenodd" fill-rule="evenodd"><path d="m17.4119 4.44266c-.4312 0-.8496.056-1.2488.16-.7456-2.1168-2.7632-3.633605-5.1344-3.633605-2.90638 0-5.28158 2.276805-5.43678 5.144005-.1784-.0224-.3584-.0392-.5424-.0392-2.2616 0-4.094396 1.83279-4.094396 4.09444 0 2.2616 1.832796 4.0952 4.094396 4.0952h12.36238c2.712 0 4.9104-2.1984 4.9104-4.91044 0-2.71201-2.1984-4.9104-4.9104-4.9104z" fill="#d0d2d3"></path><g fill="#26a9e0"><path d="m10.8651 16.1981s-1.48404.7312-1.72724.884c-.244.1536-.336.224-.456.4-.3752.5528-.232 1.3056.3208 1.6808.5528.376 1.30564.2328 1.68084-.32.1224-.18.1432-.2792.2056-.584.0616-.304.1664-1.932.1664-1.932.0104-.1296-.0744-.188-.1904-.1288z"></path><path d="m7.01504 16.1981s-1.484.7312-1.7272.884c-.244.1536-.336.224-.456.4-.3752.5528-.232 1.3056.3208 1.6808.5528.376 1.3048.2328 1.6808-.32.1224-.18.1432-.2792.2048-.584.0624-.304.1664-1.932.1664-1.932.012-.1296-.0736-.188-.1896-.1288z"></path><path d="m14.6463 16.1981s-1.484.7312-1.7264.884c-.244.1536-.336.224-.4568.4-.3752.5528-.232 1.3056.3208 1.6808.5528.376 1.3056.2328 1.6808-.32.1232-.18.1432-.2792.2056-.584.0624-.304.1664-1.932.1664-1.932.0112-.1296-.0744-.188-.1904-.1288z"></path><path d="m10.8651 20.1973s-1.48404.7312-1.72724.884c-.244.1528-.336.224-.456.4-.3752.5528-.232 1.3056.3208 1.6808.5528.376 1.30564.2328 1.68084-.32.1224-.18.1432-.2792.2056-.584.0616-.304.1664-1.9328.1664-1.9328.0104-.1296-.0744-.1872-.1904-.128z"></path><path d="m14.6463 20.1973s-1.484.7312-1.7264.884c-.244.1528-.336.224-.4568.4-.3752.5528-.232 1.3056.3208 1.6808.5528.376 1.3056.2328 1.6808-.32.1232-.18.1432-.2792.2056-.584.0624-.304.1664-1.9328.1664-1.9328.0112-.1296-.0744-.1872-.1904-.128z"></path><path d="m18.4627 16.1981s-1.484.7312-1.728.884c-.2432.1536-.336.224-.4552.4-.376.5528-.2328 1.3056.3208 1.6808.552.376 1.3048.2328 1.68-.32.1232-.18.1432-.2792.2056-.584.0624-.304.1664-1.932.1664-1.932.012-.1296-.0736-.188-.1896-.1288z"></path></g></g></svg>