<!-- icon666.com - MILLIONS vector ICONS FREE --><svg fill="none" viewBox="0 0 22 24" xmlns="http://www.w3.org/2000/svg"><g clip-rule="evenodd" fill-rule="evenodd"><path d="m16.6119 4.43951c-.4312 0-.8496.056-1.2488.1608-.7456-2.1168-2.7632-3.634398-5.1344-3.634398-2.90638 0-5.28158 2.276798-5.43678 5.144798-.1784-.0232-.3584-.04-.5424-.04-2.2616 0-4.094399 1.8336-4.094399 4.09519 0 2.2616 1.832799 4.0944 4.094399 4.0944h12.36238c2.712 0 4.9104-2.1976 4.9104-4.91039 0-2.712-2.1984-4.9104-4.9104-4.9104z" fill="#d0d2d3"></path><g fill="#26a9e0"><path d="m7.20094 16.1954s-1.484.7312-1.7272.884c-.244.1528-.336.224-.456.4-.3752.5528-.232 1.3056.3208 1.6808.5528.376 1.3056.2328 1.68-.32.1232-.18.1432-.2792.2056-.584s.1664-1.9328.1664-1.9328c.012-.1296-.0736-.1872-.1896-.128z"></path><path d="m11.9385 16.1954s-1.484.7312-1.7264.884c-.24404.1528-.33604.224-.45604.4-.3752.5528-.2328 1.3056.32004 1.6808.5528.376 1.3056.2328 1.6808-.32.1232-.18.1432-.2792.2056-.584s.1664-1.9328.1664-1.9328c.0112-.1296-.0744-.1872-.1904-.128z"></path><path d="m11.9385 20.1941s-1.484.732-1.7264.884c-.24404.1536-.33604.224-.45604.4-.3752.5528-.2328 1.3056.32004 1.6816.5528.3752 1.3056.232 1.6808-.3208.1232-.18.1432-.2792.2056-.584.0624-.304.1664-1.932.1664-1.932.0112-.1296-.0744-.188-.1904-.1288z"></path><path d="m16.765 16.1954s-1.484.7312-1.7272.884c-.244.1528-.336.224-.456.4-.3752.5528-.232 1.3056.3208 1.6808.5528.376 1.3056.2328 1.6808-.32.1232-.18.1432-.2792.2048-.584.0624-.3048.1664-1.9328.1664-1.9328.012-.1296-.0736-.1872-.1896-.128z"></path><path d="m7.20094 20.1941s-1.484.732-1.7272.884c-.244.1536-.336.224-.456.4-.3752.5528-.232 1.3056.3208 1.6816.5528.3752 1.3056.232 1.68-.3208.1232-.18.1432-.2792.2056-.584.0624-.304.1664-1.932.1664-1.932.012-.1296-.0736-.188-.1896-.1288z"></path><path d="m16.765 20.1941s-1.484.732-1.7272.884c-.244.1536-.336.224-.456.4-.3752.5528-.232 1.3056.3208 1.6816.5528.3752 1.3056.232 1.6808-.3208.1232-.18.1432-.2792.2048-.584.0624-.304.1664-1.932.1664-1.932.012-.1296-.0736-.188-.1896-.1288z"></path><path d="m21.3306 16.1954s-1.484.7312-1.7272.884c-.244.1528-.336.224-.456.4-.3752.5528-.232 1.3056.3208 1.6808.5528.376 1.3056.2328 1.6808-.32.1232-.18.1432-.2792.2048-.584.0624-.3048.1664-1.9328.1664-1.9328.012-.1296-.0736-.1872-.1896-.128z"></path><path d="m2.54702 16.1954s-1.484.7312-1.727196.884c-.2432.1528-.336001.224-.456001.4-.3751997.5528-.232 1.3056.3216 1.6808.551997.376 1.304797.2328 1.679997-.32.1232-.18.1432-.2792.2056-.584s.1664-1.9328.1664-1.9328c.0112-.1296-.0744-.1872-.1904-.128z"></path></g></g></svg>