<?xml version="1.0" encoding="utf-8"?>
<!-- Svg Vector Icons : http://www.onlinewebfonts.com/icon -->
<!DOCTYPE svg PUBLIC "-//W3C//DTD SVG 1.1//EN" "http://www.w3.org/Graphics/SVG/1.1/DTD/svg11.dtd">
<svg version="1.1" xmlns="http://www.w3.org/2000/svg" xmlns:xlink="http://www.w3.org/1999/xlink" x="0px" y="0px" viewBox="0 0 256 256" enable-background="new 0 0 256 256" xml:space="preserve">
<metadata> Svg Vector Icons : http://www.onlinewebfonts.com/icon </metadata>
<g> <path fill="#5198d3" d="M39.5,213l16.6-16.6c2.1-2.1,5.5-2.1,7.6,0c2.1,2.1,2.1,5.5,0,7.6l-16.6,16.6c-2.1,2.1-5.5,2.1-7.6,0 S37.4,215.1,39.5,213L39.5,213z M105.1,213l16.6-16.6c2.1-2.1,5.5-2.1,7.6,0c2.1,2.1,2.1,5.5,0,7.6l-16.6,16.6 c-2.1,2.1-5.5,2.1-7.6,0S103,215.1,105.1,213z M187.3,196.4c2.1-2.1,5.5-2.1,7.6,0c2.1,2.1,2.1,5.5,0,7.6l-16.6,16.6 c-2.1,2.1-5.5,2.1-7.6,0s-2.1-5.5,0-7.6L187.3,196.4z"/> <path fill="#bfd7f0" d="M47.9,173.8C27,173.8,10,156.9,10,136.1c0-20.7,16.8-37.5,37.6-37.7c2.8-36.1,33.2-64.6,70.2-64.6 c24.9,0,47.7,13,60.4,34.1c4.5-1.2,9.1-1.8,13.8-1.8c29.9,0,54.1,24.2,54.1,53.9c0,29.7-24.3,53.9-54.1,53.9L47.9,173.8L47.9,173.8 z"/></g>
</svg>