<!-- icon666.com - MILLIONS vector ICONS FREE --><svg fill="none" viewBox="0 0 22 23" xmlns="http://www.w3.org/2000/svg"><g clip-rule="evenodd" fill-rule="evenodd"><path d="m16.7283 3.68127c-.4312 0-.8496.056-1.2488.16-.7456-2.1168-2.7624-3.633598-5.1344-3.633598-2.90642 0-5.28082 2.276798-5.43682 5.143998-.1784-.0232-.3584-.0392-.5424-.0392-2.2616 0-4.094396 1.8328-4.094396 4.0944 0 2.26163 1.832796 4.09523 4.094396 4.09523h12.36242c2.712 0 4.9104-2.1984 4.9104-4.91043 0-2.7128-2.1984-4.9104-4.9104-4.9104z" fill="#d0d2d3"></path><g fill="#26a9e0"><path d="m10.1814 15.4368s-1.484.7312-1.7272.884c-.244.1536-.336.224-.456.4-.3752.5528-.232 1.3056.3208 1.6808.5528.376 1.3056.2328 1.6808-.32.1232-.18.1432-.2792.2056-.584.0616-.304.1656-1.9328.1656-1.9328.012-.1288-.0736-.1872-.1896-.128z"></path><path d="m6.52912 15.4368s-1.4848.7312-1.728.884c-.2432.1536-.3352.224-.4552.4-.3752.5528-.2328 1.3056.3208 1.6808.552.376 1.3048.2328 1.68-.32.1232-.18.1432-.2792.2056-.584.0624-.304.1664-1.9328.1664-1.9328.0112-.1288-.0744-.1872-.1896-.128z"></path><path d="m13.9627 15.4368s-1.484.7312-1.7264.884c-.244.1536-.336.224-.456.4-.3752.5528-.2328 1.3056.32 1.6808.5528.376 1.3056.2328 1.6808-.32.1232-.18.1432-.2792.2056-.584.0624-.304.1664-1.9328.1664-1.9328.0112-.1288-.0744-.1872-.1904-.128z"></path><path d="m10.1814 19.436s-1.484.7312-1.7272.884c-.244.1528-.336.224-.456.4-.3752.5528-.232 1.3048.3208 1.6808s1.3056.2328 1.6808-.32c.1232-.18.1432-.2792.2056-.584.0616-.3048.1656-1.9328.1656-1.9328.012-.1296-.0736-.188-.1896-.128z"></path><path d="m13.9627 19.436s-1.484.7312-1.7264.884c-.244.1528-.336.224-.456.4-.3752.5528-.2328 1.3048.32 1.6808s1.3056.2328 1.6808-.32c.1232-.18.1432-.2792.2056-.584s.1664-1.9328.1664-1.9328c.0112-.1296-.0744-.188-.1904-.128z"></path><path d="m17.7791 15.4368s-1.484.7312-1.7272.884c-.244.1536-.336.224-.456.4-.376.5528-.2328 1.3056.3208 1.6808.552.376 1.3048.2328 1.68-.32.1232-.18.1432-.2792.2056-.584.0624-.304.1664-1.9328.1664-1.9328.012-.1288-.0736-.1872-.1896-.128z"></path><path d="m6.52912 19.436s-1.4848.7312-1.728.884-.3352.2232-.4552.4c-.3752.5528-.2328 1.3048.3208 1.6808.552.376 1.3048.232 1.68-.32.1232-.18.1432-.2792.2056-.5848.0624-.304.1664-1.932.1664-1.932.0112-.1296-.0744-.1872-.1896-.128z"></path><path d="m17.7791 19.436s-1.484.7312-1.7272.884c-.244.1528-.336.2232-.456.4-.376.5528-.2328 1.3048.3208 1.6808.552.376 1.3048.232 1.68-.32.1232-.18.1432-.2792.2056-.5848.0624-.304.1664-1.932.1664-1.932.012-.1296-.0736-.1872-.1896-.128z"></path></g></g></svg>