<!-- icon666.com - MILLIONS vector ICONS FREE --><svg fill="none" viewBox="0 0 22 22" xmlns="http://www.w3.org/2000/svg"><g clip-rule="evenodd" fill-rule="evenodd"><path d="m16.6111 4.14578c-.4304 0-.8488.056-1.248.16-.7456-2.1168-2.7632-3.6336-5.1352-3.6336-2.90558 0-5.27998 2.2768-5.43518 5.144-.1784-.0232-.3592-.0392-.5432-.0392-2.2608 0-4.094399 1.8328-4.094399 4.0944 0 2.26162 1.833599 4.09442 4.094399 4.09442h12.36158c2.7128 0 4.9112-2.1976 4.9112-4.90962 0-2.7128-2.1984-4.9104-4.9112-4.9104z" fill="#d0d2d3"></path><g fill="#26a9e0"><path d="m15.197 15.811c-1.5896 0-2.8784 1.2888-2.8784 2.8784 0 1.5904 1.2888 2.8792 2.8784 2.8792s2.8792-1.2888 2.8792-2.8792c0-1.5896-1.2896-2.8784-2.8792-2.8784z"></path><path d="m6.56032 15.811c-1.5888 0-2.8784 1.2888-2.8784 2.8784 0 1.5904 1.2896 2.8792 2.8784 2.8792 1.5896 0 2.8792-1.2888 2.8792-2.8792 0-1.5896-1.2896-2.8784-2.8792-2.8784z"></path></g></g></svg>