<!-- icon666.com - MILLIONS vector ICONS FREE --><svg fill="none" viewBox="0 0 22 24" xmlns="http://www.w3.org/2000/svg"><g clip-rule="evenodd" fill-rule="evenodd"><path d="m16.6111 4.05319c-.4304 0-.8488.056-1.248.1608-.7456-2.1168-2.7632-3.6344-5.1352-3.6344-2.90638 0-5.27998 2.2768-5.43598 5.1448-.1776-.0232-.3584-.04-.5424-.04-2.2616 0-4.094399 1.8328-4.094399 4.0952 0 2.26081 1.832799 4.09441 4.094399 4.09441h12.36158c2.7128 0 4.9112-2.1976 4.9112-4.91041 0-2.712-2.1984-4.9104-4.9112-4.9104z" fill="#d0d2d3"></path><g fill="#26a9e0"><path d="m14.8924 21.7883-.9656-.3784.7528-.712c.0656-.0624.068-.1672.0064-.2328l-.3048-.3216c-.0616-.0656-.1664-.0688-.232-.0056l-.684.648-.1808-.9256c-.0168-.0888-.104-.148-.1928-.1296l-.4344.084c-.088.0176-.1472.104-.1296.1928l.1808.9264-.8784-.344c-.0848-.0336-.1808.0088-.2136.0928l-.1616.412c-.0328.0832.0096.1792.0936.212l.9656.3784-.7528.7136c-.0656.0624-.0688.1672-.0064.2328l.304.3208c.0624.0656.1664.0688.2328.0064l.684-.6488.1808.9264c.0176.0888.1048.1464.1928.1296l.4344-.0848c.0888-.0168.1472-.104.1296-.1928l-.18-.9248.8776.3424c.0848.0336.18-.008.2128-.0928l.1616-.4112c.0328-.0848-.0096-.1808-.0928-.2136z"></path><path d="m14.8924 17.3634-.9656-.3784.7528-.7128c.0656-.0616.068-.1664.0064-.232l-.3048-.3216c-.0616-.0656-.1664-.0688-.232-.0056l-.684.648-.1808-.9264c-.0168-.088-.104-.1472-.1928-.1296l-.4344.0848c-.088.0176-.1472.104-.1296.192l.1808.9264-.8784-.344c-.0848-.0328-.1808.0096-.2136.0928l-.1616.4128c-.0328.0832.0096.1792.0936.212l.9656.3784-.7528.7136c-.0656.0624-.0688.1664-.0064.2328l.304.3208c.0624.0656.1664.0688.2328.0064l.684-.6488.1808.9264c.0176.088.1048.1464.1928.1296l.4344-.0848c.0888-.0176.1472-.104.1296-.1928l-.18-.9256.8776.3432c.0848.0328.18-.008.2128-.0928l.1616-.4112c.0328-.0848-.0096-.1808-.0928-.2136z"></path><path d="m19.4275 17.3634-.9656-.3784.7528-.7128c.0656-.0616.068-.1664.0064-.232l-.3048-.3216c-.0616-.0656-.1664-.0688-.232-.0056l-.684.648-.1808-.9264c-.0168-.088-.104-.1472-.1928-.1296l-.4344.0848c-.088.0176-.1472.104-.1296.192l.1808.9264-.8784-.344c-.0848-.0328-.1808.0096-.2136.0928l-.1616.4128c-.0328.0832.0096.1792.0936.212l.9656.3784-.7528.7136c-.0656.0624-.0688.1664-.0064.2328l.304.3208c.0624.0656.1672.0688.2328.0064l.684-.6488.1808.9264c.0176.088.1048.1464.1928.1296l.4344-.0848c.0888-.0176.1472-.104.1296-.1928l-.18-.9256.8776.3432c.0848.0328.1808-.008.2136-.0928l.1608-.4112c.0328-.0848-.0096-.1808-.0928-.2136z"></path><path d="m10.2499 21.7493-.96564-.3784.75284-.7128c.0656-.0624.0688-.1672.0064-.232l-.30404-.3216c-.0616-.0656-.1664-.0688-.232-.0064l-.6848.6488-.1808-.9264c-.0168-.088-.104-.1472-.1928-.1296l-.4336.084c-.0888.0184-.148.1048-.1304.1928l.1808.9264-.8784-.344c-.0848-.0328-.18.0096-.2136.0928l-.1608.412c-.0328.084.0088.18.0928.2128l.9664.3784-.7536.7136c-.0656.0616-.0688.1664-.0056.2328l.3032.3208c.0624.0656.1672.068.2328.0064l.6848-.6496.1808.9264c.0168.0888.104.1472.1928.1304l.4336-.0848c.0888-.0176.1472-.104.1304-.1928l-.1808-.9256.8776.3432c.08484.0328.18084-.008.21364-.0928l.1616-.4112c.0328-.0856-.0096-.1808-.0936-.2136z"></path><path d="m10.2499 17.3235-.96564-.3776.75284-.7128c.0656-.0624.0688-.1672.0064-.2328l-.30404-.3208c-.0616-.0656-.1664-.0688-.232-.0064l-.6848.648-.1808-.9256c-.0168-.0888-.104-.1472-.1928-.1296l-.4336.084c-.0888.0176-.148.104-.1304.1928l.1808.9264-.8784-.344c-.0848-.0336-.18.0088-.2136.0928l-.1608.412c-.0328.084.0088.1792.0928.2128l.9664.3784-.7536.7128c-.0656.0624-.0688.1672-.0056.2328l.3032.3208c.0624.0656.1672.0688.2328.0064l.6848-.6488.1808.9264c.0168.0888.104.1472.1928.1296l.4336-.0848c.0888-.0168.1472-.104.1304-.1928l-.1808-.9248.8776.3432c.08484.0328.18084-.0088.21364-.0936l.1616-.4112c.0328-.0848-.0096-.1808-.0936-.2136z"></path><path d="m5.76036 17.3235-.9656-.3776.7528-.7128c.0656-.0624.0688-.1672.0064-.2328l-.304-.3208c-.0624-.0656-.1664-.0688-.232-.0064l-.6848.648-.1808-.9256c-.0168-.0888-.104-.1472-.1928-.1296l-.4336.084c-.0888.0176-.148.104-.1304.1928l.1808.9264-.8784-.344c-.0848-.0336-.18.0088-.2136.0928l-.1608.412c-.0336.084.0088.1792.0928.2128l.9656.3784-.7528.7128c-.0656.0624-.0688.1672-.0064.2328l.304.3208c.0624.0656.1672.0688.2328.0064l.6848-.6488.1808.9264c.0168.0888.104.1472.1928.1296l.4336-.0848c.0888-.0168.1472-.104.1296-.1928l-.18-.9248.8776.3432c.0848.0328.1808-.0088.2136-.0936l.1616-.4112c.0328-.0848-.0096-.1808-.0936-.2136z"></path></g></g></svg>