<!-- icon666.com - MILLIONS vector ICONS FREE --><svg fill="none" viewBox="0 0 22 24" xmlns="http://www.w3.org/2000/svg"><g clip-rule="evenodd" fill-rule="evenodd"><path d="m17.0447 3.95007c-.4312 0-.8496.056-1.248.1608-.7464-2.1176-2.7632-3.634399-5.1352-3.634399-2.90641 0-5.28081 2.276799-5.43601 5.144799-.1784-.0232-.3592-.04-.5432-.04-2.2608 0-4.094399 1.8328-4.094399 4.0944 0 2.26163 1.833599 4.09443 4.094399 4.09443h12.36241c2.712 0 4.9104-2.1976 4.9104-4.90963 0-2.7128-2.1984-4.9104-4.9104-4.9104z" fill="#d0d2d3"></path><g fill="#26a9e0"><path d="m15.3252 21.6852-.9656-.3784.7528-.7128c.0656-.0616.0688-.1664.0064-.232l-.304-.3216c-.0624-.0656-.1672-.0688-.2328-.0056l-.684.648-.1808-.9264c-.0168-.088-.104-.1472-.1928-.1296l-.4344.0848c-.088.0176-.1472.104-.1296.1928l.1808.9264-.8784-.3448c-.0848-.0328-.1808.0096-.2136.0928l-.1608.4128c-.0336.0832.0088.1792.0928.212l.9656.3784-.7528.7136c-.0656.0624-.0688.1664-.0064.2328l.304.3208c.0624.0656.1672.0688.2328.0064l.684-.6488.1808.9264c.0184.088.1048.1464.1928.1296l.4344-.0848c.0888-.0176.1472-.104.1296-.1928l-.18-.9256.8776.3432c.0848.0336.1808-.008.2136-.0928l.1608-.4112c.0328-.0848-.0088-.1808-.0928-.2136z"></path><path d="m15.3252 17.2602-.9656-.3784.7528-.7128c.0656-.0624.0688-.1672.0064-.2328l-.304-.3208c-.0624-.0656-.1672-.0688-.2328-.0064l-.684.6488-.1808-.9264c-.0168-.088-.104-.1472-.1928-.1296l-.4344.084c-.088.0176-.1472.104-.1296.1928l.1808.9264-.8784-.344c-.0848-.0328-.1808.0088-.2136.0928l-.1608.412c-.0336.084.0088.18.0928.2128l.9656.3784-.7528.7136c-.0656.0616-.0688.1664-.0064.2328l.304.3208c.0624.0656.1672.068.2328.0064l.684-.6496.1808.9264c.0184.0888.1048.1472.1928.1304l.4344-.0848c.0888-.0176.1472-.1048.1296-.1928l-.18-.9256.8776.3432c.0848.0328.1808-.0088.2136-.0928l.1608-.4112c.0328-.0856-.0088-.1808-.0928-.2136z"></path><path d="m19.8603 17.2602-.9656-.3784.7528-.7128c.0656-.0624.0688-.1672.0064-.2328l-.304-.3208c-.0624-.0656-.1672-.0688-.2328-.0064l-.684.6488-.1808-.9264c-.0168-.088-.104-.1472-.1928-.1296l-.4344.084c-.088.0176-.1472.104-.1296.1928l.1808.9264-.8784-.344c-.0848-.0328-.1808.0088-.2136.0928l-.1608.412c-.0336.084.0088.18.0928.2128l.9656.3784-.7528.7136c-.0656.0616-.0688.1664-.0064.2328l.304.3208c.0624.0656.1672.068.2328.0064l.684-.6496.1808.9264c.0184.0888.1048.1472.1928.1304l.4344-.0848c.0896-.0176.1472-.1048.1296-.1928l-.1792-.9256.8768.3432c.0848.0328.1808-.0088.2136-.0928l.1616-.4112c.0328-.0856-.0096-.1808-.0936-.2136z"></path><path d="m10.683 21.6454-.96558-.3776.75278-.7128c.0656-.0624.068-.1672.0064-.2328l-.304-.3208c-.0624-.0656-.1672-.0688-.23278-.0064l-.684.648-.1808-.9256c-.0168-.0888-.104-.1472-.1928-.1296l-.4344.084c-.088.0176-.1472.104-.1296.1928l.1808.9264-.8784-.344c-.0848-.0328-.1808.0088-.2136.0928l-.1616.412c-.0328.084.0096.1792.0936.2128l.9656.3784-.7528.7128c-.0656.0624-.0688.1672-.0064.2328l.304.3208c.0624.0656.1672.0688.2328.0064l.684-.6488.1808.9264c.0176.0888.1048.1472.1928.1296l.4344-.084c.0888-.0176.1472-.1048.1296-.1928l-.18-.9256.87758.3432c.0848.0328.1808-.0088.2136-.0936l.1608-.4112c.0328-.0848-.0088-.1808-.0928-.2136z"></path><path d="m10.683 17.2204-.96558-.3784.75278-.712c.0656-.0624.068-.1672.0064-.2328l-.304-.3216c-.0624-.0656-.1672-.068-.23278-.0056l-.684.648-.1808-.9256c-.0168-.0888-.104-.148-.1928-.1296l-.4344.084c-.088.0176-.1472.104-.1296.1928l.1808.9264-.8784-.344c-.0848-.0336-.1808.0088-.2136.0928l-.1616.412c-.0328.0832.0096.1792.0936.212l.9656.3784-.7528.7136c-.0656.0624-.0688.1672-.0064.2328l.304.3208c.0624.0656.1672.0688.2328.0064l.684-.6488.1808.9264c.0176.0888.1048.1464.1928.1296l.4344-.0848c.0888-.0168.1472-.104.1296-.1928l-.18-.9248.87758.3424c.0848.0336.1808-.008.2136-.0928l.1608-.4112c.0328-.0848-.0088-.1808-.0928-.2136z"></path><path d="m6.19322 17.2204-.9656-.3784.7528-.712c.0656-.0624.0688-.1672.0064-.2328l-.304-.3216c-.0624-.0656-.1664-.068-.232-.0056l-.6848.648-.1808-.9256c-.0168-.0888-.104-.148-.1928-.1296l-.4336.084c-.0888.0176-.148.104-.1304.1928l.1808.9264-.8784-.344c-.0848-.0336-.18.0088-.2136.0928l-.1608.412c-.0328.0832.0088.1792.0928.212l.9664.3784-.7536.7136c-.0656.0624-.068.1672-.0056.2328l.304.3208c.0616.0656.1664.0688.232.0064l.6848-.6488.1808.9264c.0176.0888.104.1464.1928.1296l.4336-.0848c.0896-.0168.148-.104.1304-.1928l-.18-.9248.8768.3424c.0848.0336.1808-.008.2136-.0928l.1616-.4112c.0328-.0848-.0096-.1808-.0936-.2136z"></path><path d="m19.7767 21.7883-.9656-.3784.7528-.712c.0656-.0624.0688-.1672.0064-.2328l-.304-.3216c-.0624-.0656-.1672-.0688-.2328-.0056l-.684.648-.1808-.9256c-.0168-.0888-.104-.148-.1928-.1296l-.4344.084c-.088.0176-.1472.104-.1296.1928l.1808.9264-.8784-.344c-.0848-.0336-.1808.0088-.2136.0928l-.1608.412c-.0336.0832.0088.1792.0928.212l.9656.3784-.7528.7136c-.0656.0624-.068.1672-.0064.2328l.3048.3208c.0616.0656.1664.0688.232.0064l.684-.6488.1808.9264c.0184.0888.1048.1464.1928.1296l.4344-.0848c.0896-.0168.148-.104.1296-.1928l-.1792-.9248.8768.3424c.0848.0336.1808-.008.2136-.0928l.1616-.4112c.0328-.0848-.0096-.1808-.0936-.2136z"></path><path d="m6.10964 21.7493-.9656-.3784.7528-.7128c.0656-.0624.0688-.1672.0064-.232l-.304-.3216c-.0616-.0656-.1664-.0688-.232-.0064l-.6848.6488-.1808-.9264c-.0168-.088-.104-.1472-.1928-.1296l-.4336.084c-.0888.0184-.148.1048-.1304.1928l.1808.9264-.8784-.344c-.0848-.0328-.18.0096-.2136.0928l-.1608.412c-.0328.084.0088.18.0928.2128l.9664.3784-.7528.7136c-.0664.0616-.0688.1664-.0064.2328l.304.3208c.0616.0656.1664.068.232.0064l.6848-.6496.1808.9264c.0176.0888.104.1472.1928.1304l.4336-.0848c.0896-.0176.148-.104.1304-.1928l-.18-.9256.8768.3432c.0848.0328.1808-.008.2136-.0928l.1616-.4112c.0328-.0856-.0096-.1808-.0936-.2136z"></path></g></g></svg>