<!-- icon666.com - MILLIONS vector ICONS FREE --><svg fill="none" viewBox="0 0 22 24" xmlns="http://www.w3.org/2000/svg"><g clip-rule="evenodd" fill-rule="evenodd"><path d="m16.6115 3.5852c-.4312 0-.8488.056-1.248.16-.7464-2.1168-2.7632-3.633597-5.1352-3.633597-2.90639 0-5.28079 2.276797-5.43599 5.143997-.1784-.0224-.3584-.0392-.5432-.0392-2.2608 0-4.094401 1.8328-4.094401 4.0944s1.833601 4.0944 4.094401 4.0944h12.36239c2.712 0 4.9104-2.1976 4.9104-4.9096 0-2.7128-2.1984-4.9104-4.9104-4.9104z" fill="#d0d2d3"></path><g fill="#26a9e0"><path d="m10.2198 21.5883-.96564-.3784.75284-.712c.0664-.0624.0688-.1672.0064-.2328l-.30404-.3216c-.0616-.0656-.1664-.0688-.232-.0056l-.6848.648-.1808-.9256c-.0168-.0888-.104-.148-.1928-.1296l-.4336.084c-.0888.0176-.148.104-.1304.1928l.1808.9264-.8784-.344c-.0848-.0336-.18.0088-.2136.0928l-.1608.412c-.0328.0832.0088.1792.0928.212l.9664.3784-.7536.7136c-.0656.0624-.0688.1672-.0056.2328l.3032.3208c.0624.0656.1672.0688.2328.0064l.6848-.6488.1808.9264c.0168.0888.104.1464.1928.1296l.4336-.0848c.0888-.0168.1472-.104.1304-.1928l-.1808-.9248.8776.3424c.08484.0336.18084-.008.21364-.0928l.1616-.4112c.0328-.0848-.0096-.1808-.0936-.2136z"></path><path d="m10.2198 17.1634-.96564-.3784.75284-.7128c.0664-.0616.0688-.1664.0064-.232l-.30404-.3216c-.0616-.0656-.1664-.0688-.232-.0056l-.6848.648-.1808-.9264c-.0168-.088-.104-.1472-.1928-.1296l-.4336.0848c-.0888.0176-.148.104-.1304.192l.1808.9264-.8784-.344c-.0848-.0328-.18.0096-.2136.0928l-.1608.4128c-.0328.0832.0088.1792.0928.212l.9664.3784-.7536.7136c-.0656.0624-.0688.1664-.0056.2328l.3032.3208c.0624.0656.1672.0688.2328.0064l.6848-.6488.1808.9264c.0168.088.104.1464.1928.1296l.4336-.0848c.0888-.0176.1472-.104.1304-.1928l-.1808-.9256.8776.3432c.08484.0328.18084-.008.21364-.0928l.1616-.4112c.0328-.0848-.0096-.1808-.0936-.2136z"></path><path d="m14.8006 21.5883-.9656-.3784.7528-.712c.0664-.0624.0688-.1672.0064-.2328l-.304-.3216c-.0616-.0656-.1664-.0688-.232-.0056l-.6848.648-.18-.9256c-.0176-.0888-.1048-.148-.1928-.1296l-.4344.084c-.0888.0176-.148.104-.1304.1928l.1808.9264-.8784-.344c-.084-.0336-.18.0088-.2136.0928l-.1608.412c-.0328.0832.0088.1792.0928.212l.9664.3784-.7536.7136c-.0656.0624-.0688.1672-.0056.2328l.3032.3208c.0624.0656.1672.0688.2336.0064l.684-.6488.1808.9264c.0176.0888.104.1464.1928.1296l.4344-.0848c.088-.0168.1464-.104.1296-.1928l-.1808-.9248.8784.3424c.084.0336.18-.008.2128-.0928l.1616-.4112c.0328-.0848-.0096-.1808-.0936-.2136z"></path><path d="m14.8006 17.1634-.9656-.3784.7528-.7128c.0664-.0616.0688-.1664.0064-.232l-.304-.3216c-.0616-.0656-.1664-.0688-.232-.0056l-.6848.648-.18-.9264c-.0176-.088-.1048-.1472-.1928-.1296l-.4344.0848c-.0888.0176-.148.104-.1304.192l.1808.9264-.8784-.344c-.084-.0328-.18.0096-.2136.0928l-.1608.4128c-.0328.0832.0088.1792.0928.212l.9664.3784-.7536.7136c-.0656.0624-.0688.1664-.0056.2328l.3032.3208c.0624.0656.1672.0688.2336.0064l.684-.6488.1808.9264c.0176.088.104.1464.1928.1296l.4344-.0848c.088-.0176.1464-.104.1296-.1928l-.1808-.9256.8784.3432c.084.0328.18-.008.2128-.0928l.1616-.4112c.0328-.0848-.0096-.1808-.0936-.2136z"></path></g></g></svg>