<!-- icon666.com - MILLIONS vector ICONS FREE --><svg fill="none" viewBox="0 0 23 24" xmlns="http://www.w3.org/2000/svg"><g clip-rule="evenodd" fill-rule="evenodd"><g fill="#26a9e0"><path d="m7.20094 16.1981s-1.484.7312-1.7272.884c-.244.1536-.336.224-.456.4-.3752.5528-.232 1.3056.3208 1.6808.5528.376 1.3056.2328 1.68-.32.1232-.18.1432-.2792.2056-.584.0624-.304.1664-1.932.1664-1.932.012-.1296-.0736-.188-.1896-.1288z"></path><path d="m11.9385 20.1973s-1.484.7312-1.7264.884c-.24404.1528-.33604.224-.45604.4-.3752.5528-.2328 1.3056.32004 1.6808.5528.376 1.3056.2328 1.6808-.32.1232-.18.1432-.2792.2056-.584.0624-.304.1664-1.9328.1664-1.9328.0112-.1296-.0744-.1872-.1904-.128z"></path><path d="m16.765 16.1981s-1.484.7312-1.7272.884c-.244.1536-.336.224-.456.4-.3752.5528-.232 1.3056.3208 1.6808.5528.376 1.3056.2328 1.6808-.32.1232-.18.1432-.2792.2048-.584.0624-.304.1664-1.932.1664-1.932.012-.1296-.0736-.188-.1896-.1288z"></path><path d="m7.20094 20.1973s-1.484.7312-1.7272.884c-.244.1528-.336.2232-.456.4-.3752.5528-.232 1.3056.3208 1.6808.5528.376 1.3056.232 1.68-.32.1232-.18.1432-.2792.2056-.5848.0624-.304.1664-1.932.1664-1.932.012-.1296-.0736-.1872-.1896-.128z"></path><path d="m16.765 20.1973s-1.484.7312-1.7272.884c-.244.1528-.336.2232-.456.4-.3752.5528-.232 1.3056.3208 1.6808.5528.376 1.3056.232 1.6808-.32.1232-.18.1432-.2792.2048-.5848.0624-.304.1664-1.932.1664-1.932.012-.1296-.0736-.1872-.1896-.128z"></path><path d="m21.3306 16.1981s-1.484.7312-1.7272.884c-.244.1536-.336.224-.456.4-.3752.5528-.232 1.3056.3208 1.6808.5528.376 1.3056.2328 1.6808-.32.1232-.18.1432-.2792.2048-.584.0624-.304.1664-1.932.1664-1.932.012-.1296-.0736-.188-.1896-.1288z"></path><path d="m2.54702 16.1981s-1.484.7312-1.727196.884c-.2432.1536-.336001.224-.456001.4-.3751997.5528-.232 1.3056.3216 1.6808.551997.376 1.304797.2328 1.679997-.32.1232-.18.1432-.2792.2056-.584.0624-.304.1664-1.932.1664-1.932.0112-.1296-.0744-.188-.1904-.1288z"></path></g><path d="m17.1346 4.43328c-.4296 0-.8472.056-1.2448.16-.744-2.1112-2.7552-3.624805-5.1216-3.624805-2.89843 0-5.26643 2.271205-5.42083 5.131205-.1784-.0232-.3584-.04-.5416-.04-2.2552 0-4.083999 1.8288-4.083999 4.08482 0 2.2552 1.828799 4.0832 4.083999 4.0832h.8136l3.308-7.94162c.1352-.32.4616-.536.8552-.5624l5.01123.068c.2984.004.58.1392.7552.3616.2104.2672.244.6224.0832.9232l-2.4544 4.62642 3.4944-.092c.3368-.016.6592.14.844.4128.2112.3096.1936.7192-.0488 1.0144l-.9776 1.1896h.6448c2.7048 0 4.8976-2.192 4.8976-4.89682 0-2.7056-2.1928-4.8976-4.8976-4.8976z" fill="#d0d2d3"></path><path d="m16.2057 12.3008-4.2208.1136 2.7376-5.27361c.0432-.0848.0336-.1824-.0264-.26-.06-.0784-.1624-.1256-.2736-.128l-4.62803-.0656c-.1368.0096-.2736.0736-.32.188l-3.5184 8.63361c-.0336.0848-.0168.1784.0456.252.0624.072.1624.1144.2696.1144h.0016l4.18163-.0248-1.71923 5.5712c-.0408.1312.0384.2672.1864.3232.0432.016.0896.024.1352.024.1088 0 .2136-.044.276-.1232l7.15923-8.9128c.0696-.0864.0752-.1984.0144-.2888-.06-.092-.1784-.1512-.3008-.1432z" fill="#f93"></path></g></svg>