<!-- icon666.com - MILLIONS vector ICONS FREE --><svg fill="none" viewBox="0 0 22 26" xmlns="http://www.w3.org/2000/svg"><g clip-rule="evenodd" fill-rule="evenodd"><path d="m16.6119 4.25863c-.4312 0-.8496.056-1.2488.16-.7456-2.1168-2.7632-3.633596-5.1344-3.633596-2.90638 0-5.28078 2.276796-5.43598 5.143996-.1784-.0224-.3592-.0392-.5432-.0392-2.2608 0-4.094399 1.8328-4.094399 4.0944 0 2.26157 1.833599 4.09517 4.094399 4.09517h12.36238c2.712 0 4.9104-2.1984 4.9104-4.91037 0-2.712-2.1984-4.9104-4.9104-4.9104z" fill="#d0d2d3"></path><path d="m5.15405 16.1141s-3.1024 1.5288-3.6096 1.848c-.508.3192-.701597.4672-.951997.8352-.7856 1.1544-.4856 2.728.669597 3.5128 1.1552.7848 2.728.4848 3.512-.6696.2568-.376.2984-.584.4296-1.22.1304-.636.348-4.0384.348-4.0384.0232-.2712-.156-.3912-.3976-.268z" fill="#26a9e0"></path><path d="m14.4072 19.3082-3.036.08 1.9688-3.7104c.032-.0592.0248-.128-.0184-.1832-.0432-.0544-.1168-.088-.1976-.0896l-3.32879-.0464c-.0984.0072-.1968.052-.2304.1328l-2.5296 6.0736c-.0248.06-.012.1256.0328.1768.0448.0504.1168.0808.1928.0808h.0016l3.00719-.0176-1.23599 3.92c-.0288.092.0272.188.1344.2264.0312.012.064.0176.0968.0176.0784 0 .1544-.0312.1992-.0864l5.14959-6.2712c.0496-.06.0544-.1384.0104-.2032-.0432-.064-.1288-.1064-.2168-.1z" fill="#f93"></path><path d="m18.6432 16.4735c-1.5896 0-2.8792 1.2888-2.8792 2.8792 0 1.5896 1.2896 2.8784 2.8792 2.8784s2.8792-1.2888 2.8792-2.8784c0-1.5904-1.2896-2.8792-2.8792-2.8792z" fill="#26a9e0"></path></g></svg>